<?xml version="1.0" encoding="UTF-8"?>
<!DOCTYPE svg PUBLIC "-//W3C//DTD SVG 1.1//EN" "http://www.w3.org/Graphics/SVG/1.1/DTD/svg11.dtd">
<!-- Creator: CorelDRAW -->
<svg xmlns="http://www.w3.org/2000/svg" xml:space="preserve" width="2048px" height="2048px" style="shape-rendering:geometricPrecision; text-rendering:geometricPrecision; image-rendering:optimizeQuality; fill-rule:evenodd; clip-rule:evenodd"
viewBox="0 0 2048 2048"
 xmlns:xlink="http://www.w3.org/1999/xlink">
 <defs>
  <style type="text/css">
   <![CDATA[
    .fil2 {fill:none}
    .fil3 {fill:#5C6BC0}
    .fil1 {fill:#7CB342}
    .fil0 {fill:#AED581}
    .fil4 {fill:#E1F5FE;fill-rule:nonzero}
   ]]>
  </style>
   <clipPath id="id0">
    <path d="M1024 -0.0011811c565.539,0 1024,458.462 1024,1024 0,565.539 -458.462,1024 -1024,1024 -565.539,0 -1024,-458.462 -1024,-1024 0,-565.539 458.462,-1024 1024,-1024z"/>
   </clipPath>
 </defs>
 <g id="Layer_x0020_1">
  <metadata id="CorelCorpID_0Corel-Layer"/>
  <path class="fil0" d="M1024 -0.0011811c565.539,0 1024,458.462 1024,1024 0,565.539 -458.462,1024 -1024,1024 -565.539,0 -1024,-458.462 -1024,-1024 0,-565.539 458.462,-1024 1024,-1024z"/>
  <g style="clip-path:url(#id0)">
   <g id="_466498496">
    <g>
     <polygon id="_3892864721" class="fil1" points="657.97,815.618 1793.85,1951.5 1794.85,1970.7 1796.01,1989.33 1797.33,2007.41 1798.82,2024.99 1800.5,2042.08 1802.38,2058.72 1804.48,2074.94 1806.79,2090.77 1809.33,2106.24 1812.12,2121.39 1815.16,2136.25 1818.47,2150.84 1822.05,2165.2 1825.93,2179.35 1830.1,2193.34 1834.58,2207.18 1839.39,2220.92 1844.53,2234.58 1850.02,2248.19 1855.86,2261.79 1862.06,2275.4 1868.65,2289.06 1875.63,2302.8 1883,2316.64 1890.79,2330.63 1899.01,2344.79 1907.66,2359.15 1916.75,2373.74 1926.3,2388.6 1936.32,2403.75 1946.82,2419.23 1957.81,2435.07 821.929,1299.19 810.938,1283.35 800.438,1267.87 790.419,1252.72 780.868,1237.86 771.774,1223.27 763.126,1208.91 754.913,1194.75 747.123,1180.76 739.746,1166.91 732.771,1153.18 726.184,1139.52 719.976,1125.9 714.135,1112.31 708.65,1098.69 703.51,1085.04 698.703,1071.3 694.219,1057.45 690.045,1043.47 686.173,1029.31 682.587,1014.96 679.28,1000.37 676.237,985.511 673.45,970.363 670.906,954.888 668.594,939.055 666.504,922.835 664.623,906.194 662.94,889.105 661.445,871.533 660.126,853.449 658.972,834.82 "/>
     <polygon id="_389305168" class="fil1" points="995.333,1273.46 2131.21,2409.34 2133.16,2411.31 2135.02,2413.39 2136.76,2415.58 2138.41,2417.87 2139.94,2420.26 2141.35,2422.75 2142.64,2425.34 2143.8,2428.03 2144.83,2430.82 1008.94,1294.94 1007.92,1292.15 1006.76,1289.46 1005.47,1286.87 1004.05,1284.38 1002.53,1281.98 1000.88,1279.7 999.134,1277.51 997.282,1275.43 "/>
     <polygon id="_389306080" class="fil1" points="1008.94,1294.94 2144.83,2430.82 2212.16,2629.77 1076.28,1493.89 "/>
     <polygon id="_389298472" class="fil1" points="1076.28,1493.89 2212.16,2629.77 2215.3,2641.17 2216.76,2651.75 2216.63,2661.51 2214.99,2670.47 2211.91,2678.62 2207.48,2685.99 2201.78,2692.57 2194.88,2698.37 2186.87,2703.41 2177.82,2707.68 2167.81,2711.19 2156.93,2713.96 2145.26,2715.99 2132.87,2717.29 2119.84,2717.86 2106.25,2717.71 2092.19,2716.85 2077.73,2715.29 2062.95,2713.03 2047.93,2710.08 2032.75,2706.45 2017.5,2702.15 2002.24,2697.18 1987.07,2691.55 1972.06,2685.27 1957.28,2678.35 1942.83,2670.78 1928.77,2662.59 1915.2,2653.78 1902.18,2644.35 1889.8,2634.31 753.921,1498.43 766.3,1508.46 779.317,1517.89 792.894,1526.71 806.949,1534.9 821.402,1542.46 836.176,1549.39 851.189,1555.67 866.363,1561.3 881.617,1566.27 896.872,1570.57 912.048,1574.2 927.066,1577.15 941.845,1579.4 956.305,1580.97 970.368,1581.83 983.955,1581.97 996.985,1581.4 1009.38,1580.11 1021.05,1578.08 1031.93,1575.31 1041.94,1571.8 1050.99,1567.52 1059,1562.49 1065.9,1556.69 1071.6,1550.11 1076.03,1542.74 1079.11,1534.59 1080.75,1525.63 1080.88,1515.87 1079.42,1505.29 "/>
     <polygon id="_389308408" class="fil1" points="727.863,481.526 1863.74,1617.41 1869.08,1624.27 1873.73,1632.53 1877.65,1642.22 741.768,506.341 737.849,496.643 733.198,488.391 "/>
     <polygon id="_389296048" class="fil1" points="741.768,506.341 1877.65,1642.22 1945.04,1841.2 809.161,705.315 "/>
     <polygon id="_389301016" class="fil1" points="809.161,705.315 1945.04,1841.2 1945.92,1844.04 1946.63,1846.88 1947.19,1849.72 1947.58,1852.56 1947.82,1855.39 1947.91,1858.21 1947.86,1861.01 1947.65,1863.79 1947.31,1866.54 1946.82,1869.26 1946.21,1871.95 1945.45,1874.6 1944.57,1877.2 1943.57,1879.76 1942.44,1882.27 1941.19,1884.72 1939.83,1887.12 1938.35,1889.45 1936.76,1891.71 1935.07,1893.9 1933.27,1896.01 1931.38,1898.05 1929.38,1899.99 1927.29,1901.86 1925.11,1903.62 1922.84,1905.29 1920.49,1906.86 1918.06,1908.32 1915.55,1909.68 1912.96,1910.91 1910.3,1912.03 1907.58,1913.03 771.697,777.149 774.423,776.151 777.081,775.032 779.668,773.793 782.179,772.44 784.612,770.978 786.963,769.41 789.231,767.74 791.41,765.973 793.499,764.112 795.494,762.164 797.391,760.131 799.189,758.017 800.883,755.826 802.47,753.564 803.947,751.234 805.31,748.84 806.559,746.386 807.687,743.878 808.693,741.318 809.573,738.713 810.324,736.064 810.943,733.377 811.426,730.654 811.771,727.903 811.974,725.125 812.032,722.327 811.942,719.51 811.701,716.68 811.306,713.842 810.753,710.999 810.038,708.155 "/>
     <polygon id="_389304280" class="fil1" points="771.697,777.149 1907.58,1913.03 1874.66,1924.19 738.78,788.312 "/>
     <polygon id="_389286400" class="fil1" points="738.78,788.312 1874.66,1924.19 1793.85,1951.5 657.97,815.618 "/>
     <polygon id="_389307136" class="fil1" points="1584,1024 2719.88,2159.88 2699.8,2179.97 1563.92,1044.08 "/>
     <polygon id="_389298712" class="fil1" points="1475.26,1052.41 2611.14,2188.29 2026.38,2188.29 890.501,1052.41 "/>
     <polygon id="_389310688" class="fil1" points="1365.08,1242.92 2500.96,2378.81 2460.79,2338.64 1324.91,1202.76 "/>
     <polygon id="_389290432" class="fil1" points="1475.26,995.593 2611.14,2131.48 2460.79,1981.13 1324.91,845.245 "/>
     <polygon id="_389297536" class="fil1" points="1563.92,1044.08 2699.8,2179.97 2500.96,2378.81 1365.08,1242.92 "/>
    </g>
    <path id="_466496480" class="fil1" d="M657.97 815.618c9.90119,208.003 44.0681,312.624 163.958,483.567l113.569 -38.4485c29.3858,-9.94961 63.2115,3.94843 73.4469,34.2024l67.3359 198.952c42.6579,125.985 -213.748,110.542 -334.021,-6.10158 -179.221,-173.83 -349.422,-622.965 -247.727,-858.61 38.4461,-89.1036 209.517,-234.195 247.236,-122.838l67.3926 198.973c10.2508,30.2622 -8.02914,61.8603 -37.4634,71.8347l-32.9173 11.1626 -80.8099 27.3059zm707.106 -10.5413l198.84 198.84 20.0835 20.0835 -20.0835 20.0835 -198.84 198.84 -40.167 -40.1681 150.349 -150.349 -584.757 0 0 -56.8134 584.757 0 -150.349 -150.349 40.167 -40.1681z"/>
   </g>
  </g>
  <path class="fil2" d="M1024 -0.0011811c565.539,0 1024,458.462 1024,1024 0,565.539 -458.462,1024 -1024,1024 -565.539,0 -1024,-458.462 -1024,-1024 0,-565.539 458.462,-1024 1024,-1024z"/>
  <path class="fil3" d="M494.533 629.181c-101.695,235.644 68.5064,684.779 247.727,858.608 120.272,116.645 376.679,132.088 334.021,6.10276l-67.3359 -198.952c-10.2354,-30.2551 -44.0611,-44.152 -73.4457,-34.2024l-113.571 38.4485c-119.889,-170.943 -154.056,-275.566 -163.957,-483.567l80.8099 -27.3059 32.9173 -11.1626c29.4343,-9.97324 47.7142,-41.5725 37.4634,-71.8347l-67.3926 -198.975c-37.7185,-111.356 -208.79,33.7359 -247.236,122.841z"/>
  <polygon class="fil4" points="1365.08,805.077 1563.92,1003.92 1584,1024 1563.92,1044.08 1365.08,1242.92 1324.91,1202.76 1475.26,1052.41 890.501,1052.41 890.501,995.593 1475.26,995.593 1324.91,845.245 "/>
 </g>
</svg>
