<?xml version="1.0" encoding="UTF-8"?>
<!DOCTYPE svg PUBLIC "-//W3C//DTD SVG 1.1//EN" "http://www.w3.org/Graphics/SVG/1.1/DTD/svg11.dtd">
<!-- Creator: CorelDRAW -->
<svg xmlns="http://www.w3.org/2000/svg" xml:space="preserve" width="2048px" height="2048px" style="shape-rendering:geometricPrecision; text-rendering:geometricPrecision; image-rendering:optimizeQuality; fill-rule:evenodd; clip-rule:evenodd"
viewBox="0 0 2048 2048"
 xmlns:xlink="http://www.w3.org/1999/xlink">
 <defs>
  <style type="text/css">
   <![CDATA[
    .fil2 {fill:none}
    .fil16 {fill:#005E60}
    .fil11 {fill:#006064}
    .fil17 {fill:#223539}
    .fil9 {fill:#262F34}
    .fil7 {fill:#263238}
    .fil18 {fill:#4C6B74}
    .fil12 {fill:#546E7A}
    .fil8 {fill:#9F9F9F}
    .fil15 {fill:#A0DBE0}
    .fil10 {fill:#B2EBF2}
    .fil3 {fill:#BDBDBD}
    .fil20 {fill:#C00806}
    .fil14 {fill:#D50000}
    .fil5 {fill:#DB3300}
    .fil1 {fill:#F57C00}
    .fil4 {fill:#FF3D00}
    .fil0 {fill:#FF9800}
    .fil6 {fill:#0091EA;fill-rule:nonzero}
    .fil19 {fill:#C00806;fill-rule:nonzero}
    .fil13 {fill:#D50000;fill-rule:nonzero}
   ]]>
  </style>
   <clipPath id="id0">
    <path d="M1024 -0.0011811c565.541,0 1024,458.461 1024,1024 0,565.541 -458.461,1024 -1024,1024 -565.541,0 -1024,-458.461 -1024,-1024 0,-565.541 458.461,-1024 1024,-1024z"/>
   </clipPath>
 </defs>
 <g id="Layer_x0020_1">
  <metadata id="CorelCorpID_0Corel-Layer"/>
  <path class="fil0" d="M1024 -0.0011811c565.541,0 1024,458.461 1024,1024 0,565.541 -458.461,1024 -1024,1024 -565.541,0 -1024,-458.461 -1024,-1024 0,-565.541 458.461,-1024 1024,-1024z"/>
  <g style="clip-path:url(#id0)">
   <g id="_466417432">
    <g>
     <polygon id="_4625806481" class="fil1" points="871.208,468.827 2007.09,1604.71 2008.15,1605.88 2009.1,1607.15 2009.93,1608.51 2010.62,1609.95 2011.18,1611.46 2011.58,1613.04 2011.83,1614.68 2011.92,1616.36 876.035,480.482 875.95,478.797 875.699,477.161 875.294,475.581 874.739,474.067 874.046,472.626 873.22,471.267 872.271,469.998 "/>
     <polygon id="_462572536" class="fil1" points="681.671,468.827 1817.55,1604.71 1818.62,1605.88 1819.57,1607.15 1820.39,1608.51 1821.08,1609.95 1821.64,1611.46 1822.04,1613.04 1822.29,1614.68 1822.38,1616.36 686.499,480.482 686.414,478.797 686.163,477.161 685.758,475.581 685.203,474.067 684.51,472.626 683.684,471.267 682.734,469.998 "/>
     <polygon id="_462575008" class="fil1" points="1485.59,1485.59 2621.47,2621.47 2615.7,2627.1 2609.8,2632.6 2603.77,2637.95 2597.61,2643.16 2591.32,2648.22 2584.91,2653.13 2578.39,2657.89 2571.74,2662.5 2564.98,2666.95 2558.11,2671.24 2551.13,2675.37 2544.04,2679.33 2536.84,2683.12 2529.55,2686.75 2522.16,2690.2 2514.67,2693.48 2507.08,2696.58 2499.41,2699.49 2491.64,2702.23 2483.8,2704.78 2475.86,2707.14 2467.85,2709.3 2459.76,2711.28 2451.6,2713.06 2443.36,2714.63 2435.05,2716.01 2426.67,2717.18 2418.23,2718.15 2409.73,2718.9 2401.17,2719.45 2392.55,2719.77 2383.88,2719.88 1248,1584 1256.67,1583.89 1265.29,1583.56 1273.85,1583.02 1282.35,1582.26 1290.79,1581.3 1299.17,1580.13 1307.48,1578.75 1315.71,1577.17 1323.88,1575.4 1331.97,1573.42 1339.98,1571.25 1347.91,1568.89 1355.76,1566.35 1363.53,1563.61 1371.2,1560.69 1378.78,1557.6 1386.27,1554.32 1393.67,1550.87 1400.96,1547.24 1408.16,1543.45 1415.24,1539.48 1422.23,1535.36 1429.1,1531.07 1435.86,1526.62 1442.5,1522.01 1449.03,1517.25 1455.44,1512.34 1461.73,1507.27 1467.88,1502.06 1473.92,1496.71 1479.82,1491.22 "/>
     <polygon id="_462574840" class="fil1" points="912.073,1255.11 2047.95,2391 1975.56,2391 839.675,1255.11 "/>
     <polygon id="_462574168" class="fil1" points="839.675,1255.11 1975.56,2391 1642.11,2391 506.233,1255.11 "/>
     <polygon id="_462573928" class="fil1" points="1248,1584 2383.88,2719.88 2375.21,2719.77 2366.59,2719.45 2358.03,2718.9 2349.53,2718.15 2341.09,2717.18 2332.71,2716.01 2324.4,2714.63 2316.17,2713.06 2308,2711.28 2299.91,2709.3 2291.9,2707.14 2283.97,2704.78 2276.12,2702.23 2268.35,2699.49 2260.68,2696.58 2253.1,2693.48 2245.61,2690.2 2238.21,2686.75 2230.92,2683.12 2223.72,2679.33 2216.64,2675.37 2209.65,2671.24 2202.78,2666.95 2196.02,2662.5 2189.38,2657.89 2182.85,2653.13 2176.44,2648.22 2170.15,2643.16 2163.99,2637.95 2157.96,2632.6 1022.08,1496.71 1028.11,1502.06 1034.27,1507.27 1040.56,1512.34 1046.97,1517.25 1053.49,1522.01 1060.14,1526.62 1066.9,1531.07 1073.77,1535.36 1080.75,1539.48 1087.84,1543.45 1095.04,1547.24 1102.33,1550.87 1109.72,1554.32 1117.21,1557.6 1124.8,1560.69 1132.47,1563.61 1140.24,1566.35 1148.08,1568.89 1156.02,1571.25 1164.03,1573.42 1172.12,1575.4 1180.28,1577.17 1188.52,1578.75 1196.83,1580.13 1205.21,1581.3 1213.65,1582.26 1222.15,1583.02 1230.71,1583.56 1239.33,1583.89 "/>
     <polygon id="_462574024" class="fil1" points="506.233,1255.11 1642.11,2391 1639.95,2390.94 1637.81,2390.78 1635.7,2390.51 1633.62,2390.13 1631.58,2389.66 1629.58,2389.09 1627.62,2388.42 1625.7,2387.67 1623.83,2386.82 1622.01,2385.88 1620.24,2384.86 1618.53,2383.77 1616.87,2382.59 1615.27,2381.33 1613.74,2380 477.859,1244.12 479.392,1245.45 480.989,1246.7 482.645,1247.88 484.359,1248.98 486.128,1250 487.948,1250.94 489.819,1251.78 491.736,1252.54 493.696,1253.21 495.698,1253.78 497.739,1254.25 499.816,1254.62 501.925,1254.9 504.065,1255.06 "/>
     <polygon id="_462574120" class="fil1" points="686.499,480.482 1822.38,1616.36 1822.38,1682.29 686.499,546.403 "/>
     <polygon id="_462574216" class="fil1" points="876.035,480.482 2011.92,1616.36 2011.92,1682.29 876.035,546.403 "/>
     <polygon id="_462572584" class="fil1" points="1255.11,747.806 2390.99,1883.69 2390.99,2047.96 1255.11,912.073 "/>
     <polygon id="_462571864" class="fil1" points="1584,1248 2719.88,2383.88 2719.77,2392.55 2719.44,2401.17 2718.9,2409.73 2718.15,2418.24 2717.18,2426.68 2716.01,2435.05 2714.63,2443.36 2713.05,2451.6 2711.28,2459.76 2709.3,2467.85 2707.13,2475.87 2704.77,2483.8 2702.23,2491.65 2699.49,2499.41 2696.57,2507.08 2693.48,2514.67 2690.2,2522.16 2686.75,2529.55 2683.12,2536.85 2679.33,2544.04 2675.36,2551.13 2671.24,2558.11 2666.95,2564.98 2662.5,2571.74 2657.89,2578.39 2653.13,2584.92 2648.22,2591.32 2643.15,2597.61 2637.94,2603.77 2632.59,2609.8 2627.1,2615.7 2621.47,2621.47 1485.59,1485.59 1491.22,1479.82 1496.71,1473.92 1502.06,1467.89 1507.27,1461.73 1512.33,1455.44 1517.25,1449.03 1522.01,1442.51 1526.61,1435.86 1531.06,1429.1 1535.35,1422.23 1539.48,1415.25 1543.44,1408.16 1547.24,1400.96 1550.87,1393.67 1554.32,1386.28 1557.59,1378.78 1560.69,1371.2 1563.61,1363.53 1566.34,1355.76 1568.89,1347.91 1571.25,1339.98 1573.42,1331.97 1575.39,1323.88 1577.17,1315.71 1578.75,1307.48 1580.13,1299.17 1581.3,1290.79 1582.26,1282.35 1583.02,1273.85 1583.56,1265.29 1583.89,1256.67 "/>
     <polygon id="_462572248" class="fil1" points="1061.81,469.998 2197.69,1605.88 2198.64,1607.15 2199.46,1608.51 2200.16,1609.95 2200.71,1611.46 2201.12,1613.04 2201.37,1614.68 2201.45,1616.36 1065.57,480.482 1065.49,478.797 1065.24,477.161 1064.83,475.581 1064.28,474.067 1063.58,472.626 1062.76,471.267 "/>
     <polygon id="_462573304" class="fil1" points="1065.57,480.482 2201.45,1616.36 2201.45,1682.29 1065.57,546.403 "/>
     <polygon id="_462574624" class="fil1" points="1255.11,546.404 2390.99,1682.29 2390.99,1698.77 1255.11,562.885 "/>
     <polygon id="_462575704" class="fil1" points="1255.11,562.885 2390.99,1698.77 2390.99,1859.96 1255.11,724.077 "/>
     <polygon id="_462576952" class="fil1" points="1255.11,724.077 2390.99,1859.96 2390.99,1863.58 1255.11,727.701 "/>
     <polygon id="_462578152" class="fil1" points="1255.11,727.701 2390.99,1863.58 2390.99,1881.53 1255.11,745.649 "/>
     <polygon id="_462579016" class="fil1" points="1255.11,745.649 2390.99,1881.53 2390.99,1883.69 1255.11,747.806 "/>
     <polygon id="_462580432" class="fil1" points="1496.71,1022.08 2632.59,2157.97 2637.94,2164 2643.15,2170.16 2648.22,2176.44 2653.13,2182.85 2657.89,2189.38 2662.5,2196.02 2666.95,2202.78 2671.24,2209.66 2675.36,2216.64 2679.33,2223.73 2683.12,2230.92 2686.75,2238.21 2690.2,2245.61 2693.48,2253.1 2696.57,2260.68 2699.49,2268.36 2702.23,2276.12 2704.77,2283.97 2707.13,2291.9 2709.3,2299.91 2711.28,2308 2713.05,2316.17 2714.63,2324.41 2716.01,2332.71 2717.18,2341.09 2718.15,2349.53 2718.9,2358.03 2719.44,2366.59 2719.77,2375.21 2719.88,2383.88 1584,1248 1583.89,1239.33 1583.56,1230.71 1583.02,1222.15 1582.26,1213.65 1581.3,1205.21 1580.13,1196.83 1578.75,1188.52 1577.17,1180.28 1575.39,1172.12 1573.42,1164.03 1571.25,1156.02 1568.89,1148.09 1566.34,1140.24 1563.61,1132.47 1560.69,1124.8 1557.59,1117.22 1554.32,1109.72 1550.87,1102.33 1547.24,1095.04 1543.44,1087.84 1539.48,1080.75 1535.35,1073.77 1531.06,1066.9 1526.61,1060.14 1522.01,1053.5 1517.25,1046.97 1512.33,1040.56 1507.27,1034.27 1502.06,1028.11 "/>
    </g>
    <path id="_466417168" class="fil1" d="M1255.11 912.073c89.9564,1.86969 171.226,39.0933 230.472,98.341 60.8044,60.8032 98.4131,144.804 98.4131,237.586 0,92.7816 -37.6087,176.783 -98.4131,237.587 -60.8044,60.8044 -144.804,98.4131 -237.586,98.4131 -92.7827,0 -176.783,-37.6087 -237.587,-98.4131 -59.2465,-59.2465 -96.4702,-140.517 -98.3398,-230.473l-72.3981 0 -333.442 0c-11.6303,0 -22.1941,-4.74685 -29.8406,-12.3933 -7.64528,-7.64764 -12.3933,-18.2103 -12.3933,-29.8418l0 -465.072 0 -2.15669 0 -17.948 0 -3.62481 0 -161.191 0 -16.4811 16.4823 -0.0011811 173.054 0 0 -65.9209c0,-9.10276 7.37953,-16.4823 16.4811,-16.4823 9.10276,0 16.4823,7.37953 16.4823,16.4823l0 65.9209 156.573 0 0 -65.9209c0,-9.10276 7.37953,-16.4823 16.4823,-16.4823 9.10158,0 16.4811,7.37953 16.4811,16.4823l0 65.9209 156.573 0 0 -65.9209c0,-9.10276 7.37953,-16.4823 16.4823,-16.4823 9.10158,0 16.4823,7.37953 16.4823,16.4823l0 65.9209 173.059 0 16.4823 0.0011811 0 16.4811 0 161.191 0 3.62481 0 17.948 0 2.15669 0 164.267z"/>
   </g>
  </g>
  <path class="fil2" d="M1024 -0.0011811c565.541,0 1024,458.461 1024,1024 0,565.541 -458.461,1024 -1024,1024 -565.541,0 -1024,-458.461 -1024,-1024 0,-565.541 458.461,-1024 1024,-1024z"/>
  <path class="fil3" d="M1255.11 727.701l0 485.177c0,11.6315 -4.74685,22.1941 -12.3945,29.8418 -7.64646,7.64646 -18.2091,12.3933 -29.8394,12.3933l-706.647 0c-11.6303,0 -22.1941,-4.74685 -29.8406,-12.3933 -7.64528,-7.64764 -12.3933,-18.2103 -12.3933,-29.8418l0 -485.177 791.115 0z"/>
  <path class="fil4" d="M480.481 546.403c370.914,0 387.232,0 758.15,0l16.4823 0.0011811 0 16.4811 0 164.816 -791.115 0 0 -164.816 0 -16.4811 16.4823 -0.0011811z"/>
  <path class="fil5" d="M480.481 747.806c370.914,0 387.232,0 758.15,0l16.4823 0 0 -2.15669 0 -21.5729 -791.115 0 0 21.5729 0 2.15669 16.4823 0z"/>
  <path class="fil6" d="M653.534 480.482c0,-9.10276 7.37953,-16.4823 16.4823,-16.4823 9.10276,0 16.4823,7.37953 16.4823,16.4823l0 164.814c0,9.10276 -7.37953,16.4823 -16.4823,16.4823 -9.10276,0 -16.4823,-7.37953 -16.4823,-16.4823l0 -164.814z"/>
  <path class="fil6" d="M843.072 480.482c0,-9.10276 7.37953,-16.4823 16.4811,-16.4823 9.10276,0 16.4823,7.37953 16.4823,16.4823l0 164.814c0,9.10276 -7.37953,16.4823 -16.4823,16.4823 -9.10158,0 -16.4811,-7.37953 -16.4811,-16.4823l0 -164.814z"/>
  <path class="fil6" d="M1032.61 480.482c0,-9.10276 7.37953,-16.4823 16.4823,-16.4823 9.10158,0 16.4823,7.37953 16.4823,16.4823l0 164.814c0,9.10276 -7.38071,16.4823 -16.4823,16.4823 -9.10276,0 -16.4823,-7.37953 -16.4823,-16.4823l0 -164.814z"/>
  <path class="fil7" d="M1083.05 1106.57l0 35.6445 -199.595 0c-0.281103,-8.92796 1.12559,-17.5063 4.28859,-25.7315 5.06221,-13.6394 13.2177,-26.9965 24.3957,-40.2142 11.2488,-13.1469 27.4193,-28.4032 48.5103,-45.6981 32.8323,-26.9268 55.0489,-48.2292 66.5788,-63.9768 11.5299,-15.678 17.2949,-30.5823 17.2949,-44.5737 0,-14.6929 -5.27244,-27.0673 -15.7488,-37.1906 -10.5449,-10.0536 -24.2551,-15.1158 -41.1272,-15.1158 -17.8583,0 -32.1296,5.34331 -42.8162,16.0996 -10.7563,10.6866 -16.1693,25.5201 -16.3099,44.4331l-38.1059 -3.86693c2.60197,-28.474 12.4441,-50.1272 29.4579,-65.0315 17.0138,-14.9055 39.9331,-22.3571 68.6174,-22.3571 28.9654,0 51.8847,8.08583 68.7579,24.1146 16.9429,16.0996 25.3795,35.9953 25.3795,59.7591 0,12.0921 -2.46024,23.974 -7.45158,35.6433 -4.92166,11.6717 -13.148,23.974 -24.6071,36.841 -11.4591,12.9354 -30.5126,30.652 -57.1571,53.1496 -22.2166,18.7004 -36.489,31.3559 -42.8162,38.0351 -6.32717,6.60827 -11.5299,13.2874 -15.678,20.0362l148.132 0z"/>
  <path class="fil7" d="M848.448 1106.57l0 35.6445 -199.595 0c-0.281103,-8.92796 1.12441,-17.5063 4.28859,-25.7315 5.06221,-13.6394 13.2177,-26.9965 24.3957,-40.2142 11.2488,-13.1469 27.4181,-28.4032 48.5103,-45.6981 32.8323,-26.9268 55.0489,-48.2292 66.5776,-63.9768 11.5311,-15.678 17.2961,-30.5823 17.2961,-44.5737 0,-14.6929 -5.27363,-27.0673 -15.7488,-37.1906 -10.5461,-10.0536 -24.2551,-15.1158 -41.1284,-15.1158 -17.8571,0 -32.1284,5.34331 -42.815,16.0996 -10.7563,10.6866 -16.1705,25.5201 -16.311,44.4331l-38.1048 -3.86693c2.60197,-28.474 12.4441,-50.1272 29.4579,-65.0315 17.0138,-14.9055 39.9331,-22.3571 68.6174,-22.3571 28.9654,0 51.8847,8.08583 68.7579,24.1146 16.9429,16.0996 25.3795,35.9953 25.3795,59.7591 0,12.0921 -2.46142,23.974 -7.45158,35.6433 -4.92166,11.6717 -13.148,23.974 -24.6071,36.841 -11.4602,12.9354 -30.5126,30.652 -57.1571,53.1496 -22.2177,18.7004 -36.489,31.3559 -42.8162,38.0351 -6.32717,6.60827 -11.5299,13.2874 -15.678,20.0362l148.132 0z"/>
  <path class="fil8" d="M1255.11 912.544l0 300.334c0,11.6303 -4.74804,22.1941 -12.3933,29.8418 -7.64764,7.64646 -18.2103,12.3933 -29.8406,12.3933l-373.205 0c21.5103,-192.924 189.834,-343.114 394.322,-343.114 7.08426,0 14.1236,0.187795 21.1169,0.544489z"/>
  <path class="fil9" d="M1083.05 1106.57l0 35.6445 -199.593 0c-0.282284,-8.92796 1.12441,-17.5063 4.2874,-25.7315 5.06221,-13.6394 13.2177,-26.9965 24.3957,-40.2142 11.2488,-13.1469 27.4193,-28.4032 48.5115,-45.6981 30.5658,-25.0689 51.9307,-45.2622 64.0371,-60.6378 17.7378,-10.7161 36.4028,-20.1213 55.8638,-28.0559 -1.23662,5.59134 -3.02481,11.1343 -5.3752,16.6311 -4.92166,11.6705 -13.148,23.974 -24.6071,36.841 -11.4591,12.9354 -30.5114,30.652 -57.1571,53.1496 -22.2166,18.7016 -36.489,31.3559 -42.8162,38.0351 -6.32717,6.60827 -11.5299,13.2874 -15.6768,20.0362l148.13 0z"/>
  <circle class="fil10" cx="1248" cy="1248" r="293.998"/>
  <path class="fil11" d="M1248 912c92.7816,0 176.782,37.6087 237.586,98.4142 60.8056,60.8044 98.4142,144.804 98.4142,237.586 0,92.7816 -37.6087,176.783 -98.4142,237.587 -60.8044,60.8044 -144.804,98.4131 -237.586,98.4131 -92.7827,0 -176.783,-37.6087 -237.587,-98.4131 -60.8056,-60.8044 -98.4142,-144.806 -98.4142,-237.587 0,-92.7816 37.6087,-176.782 98.4142,-237.586 60.8044,-60.8056 144.804,-98.4142 237.587,-98.4142zm0 42.0024c162.37,0 293.998,131.628 293.998,293.998 0,162.371 -131.628,293.998 -293.998,293.998 -162.371,0 -293.998,-131.627 -293.998,-293.998 0,-162.37 131.627,-293.998 293.998,-293.998z"/>
  <path class="fil7" d="M1248 995.997l0.0011811 0c4.39961,0 7.99843,3.15 7.99843,6.99922l0 242.959c0,3.84922 -3.6,6.99922 -7.99843,6.99922l-0.0011811 0c-4.39843,0 -7.99843,-3.14882 -7.99843,-6.99922l0 -242.959c0,-3.8504 3.59882,-6.99922 7.99843,-6.99922z"/>
  <path class="fil12" d="M1238.73 1243l0 0c2.08937,-3.87166 6.57166,-5.54292 9.95906,-3.71457l171.901 92.765c3.3874,1.82717 4.4504,6.49252 2.36103,10.363l0 0.0011811c-2.08819,3.87048 -6.57048,5.54292 -9.95788,3.71457l-171.902 -92.765c-3.3874,-1.82835 -4.4504,-6.49134 -2.36103,-10.3642z"/>
  <circle class="fil7" cx="1248" cy="1248" r="21"/>
  <path class="fil13" d="M1030.59 1376.66c-1.57087,0.901182 -3.57756,0.359055 -4.47992,-1.21181 -0.902363,-1.57087 -0.360236,-3.57638 1.21063,-4.47874l270.544 -155.394c1.57087,-0.902363 3.57638,-0.360236 4.47874,1.21063 0.902363,1.57087 0.360236,3.57756 -1.21063,4.47992l-270.542 155.394z"/>
  <circle class="fil14" transform="matrix(0.200254 -0.740742 0.740742 0.200254 1248 1248)" r="14.0622"/>
  <path class="fil15" d="M1248 954.002l0 0 0 587.996 0 0c-162.371,0 -293.998,-131.627 -293.998,-293.998 0,-162.37 131.627,-293.998 293.998,-293.998z"/>
  <path class="fil16" d="M1248 912l0 0 0 42.0024 0 0c-162.371,0 -293.998,131.628 -293.998,293.998 0,162.371 131.627,293.998 293.998,293.998l0 0 0 42.0024 0 0c-92.7827,0 -176.783,-37.6087 -237.587,-98.4131 -60.8056,-60.8044 -98.4142,-144.806 -98.4142,-237.587 0,-92.7816 37.6087,-176.782 98.4142,-237.586 60.8044,-60.8056 144.804,-98.4142 237.587,-98.4142z"/>
  <path class="fil17" d="M1248 995.997l0.0011811 0 0 0 0 256.957 0 0 -0.0011811 0c-4.39843,0 -7.99843,-3.14882 -7.99843,-6.99922l0 -242.959c0,-3.8504 3.59882,-6.99922 7.99843,-6.99922z"/>
  <path class="fil18" d="M1238.73 1243l0 -0.0011811c1.95118,-3.61536 5.98937,-5.31024 9.27166,-4.03111l0 18.124 -6.91064 -3.72874c-3.3874,-1.82835 -4.4504,-6.49134 -2.36103,-10.363z"/>
  <path class="fil17" d="M1248 1227l0 0 0 42 0 0c-11.5984,0 -21,-9.40158 -21,-21 0,-11.5973 9.40158,-21 21,-21z"/>
  <path class="fil19" d="M1030.59 1376.66c-1.57087,0.902363 -3.57756,0.359055 -4.47992,-1.21181 -0.902363,-1.57087 -0.360236,-3.57756 1.21063,-4.47874l220.676 -126.751 0 7.56733 -217.407 124.875z"/>
  <path class="fil20" d="M1237.58 1245.18c1.30158,-4.813 5.65867,-7.97953 10.4173,-7.97599l0 21.5835c-0.929528,0 -1.87559,-0.120473 -2.81693,-0.375591 -5.75315,-1.55551 -9.15473,-7.47875 -7.6004,-13.2319z"/>
 </g>
</svg>
